<svg xmlns="http://www.w3.org/2000/svg" viewBox="0 0 1024 1024" width="1024" height="1024">
  <defs>
    <linearGradient id="wood" x1="0" y1="0" x2="1" y2="1"><stop offset="0" stop-color="#b47a3f"/><stop offset="1" stop-color="#7b4a1e"/></linearGradient>
    <linearGradient id="cork" x1="0" y1="0" x2="0" y2="1"><stop offset="0" stop-color="#dba46a"/><stop offset="1" stop-color="#c58849"/></linearGradient>
    <radialGradient id="pinShade" cx=".35" cy=".3" r=".8"><stop offset="0" stop-color="#fff" stop-opacity=".25"/><stop offset="1" stop-color="#000" stop-opacity=".35"/></radialGradient>
    <clipPath id="inner"><rect x="150" y="150" width="724" height="724" rx="120"/></clipPath>
  </defs>
  <rect x="100" y="100" width="824" height="824" rx="185" fill="url(#wood)"/>
  <rect x="100" y="100" width="824" height="824" rx="185" fill="none" stroke="#5e3713" stroke-width="6" opacity=".5"/>
  <rect x="150" y="150" width="724" height="724" rx="120" fill="url(#cork)"/>
  <g clip-path="url(#inner)"><circle cx="392" cy="273" r="5.4" fill="#a86a35" opacity="0.72"/><circle cx="234" cy="569" r="6.6" fill="#b97a40" opacity="0.37"/><circle cx="467" cy="218" r="2.9" fill="#9c5f2e" opacity="0.38"/><circle cx="557" cy="818" r="5.3" fill="#f0c48e" opacity="0.78"/><circle cx="565" cy="441" r="6.9" fill="#a86a35" opacity="0.60"/><circle cx="261" cy="457" r="4.9" fill="#f0c48e" opacity="0.49"/><circle cx="728" cy="294" r="5.1" fill="#b97a40" opacity="0.52"/><circle cx="545" cy="213" r="2.8" fill="#b97a40" opacity="0.57"/><circle cx="534" cy="702" r="4.6" fill="#9c5f2e" opacity="0.51"/><circle cx="340" cy="293" r="6.0" fill="#a86a35" opacity="0.61"/><circle cx="529" cy="769" r="5.8" fill="#e6b47c" opacity="0.62"/><circle cx="220" cy="520" r="3.2" fill="#e6b47c" opacity="0.42"/><circle cx="504" cy="197" r="5.5" fill="#f0c48e" opacity="0.61"/><circle cx="769" cy="385" r="5.6" fill="#f0c48e" opacity="0.57"/><circle cx="715" cy="217" r="2.9" fill="#e6b47c" opacity="0.56"/><circle cx="624" cy="211" r="5.7" fill="#f0c48e" opacity="0.80"/><circle cx="732" cy="365" r="4.2" fill="#e6b47c" opacity="0.36"/><circle cx="486" cy="285" r="3.0" fill="#a86a35" opacity="0.45"/><circle cx="367" cy="675" r="4.3" fill="#9c5f2e" opacity="0.39"/><circle cx="477" cy="546" r="6.5" fill="#9c5f2e" opacity="0.74"/><circle cx="360" cy="454" r="4.1" fill="#9c5f2e" opacity="0.78"/><circle cx="273" cy="291" r="3.5" fill="#b97a40" opacity="0.36"/><circle cx="738" cy="295" r="3.8" fill="#b97a40" opacity="0.54"/><circle cx="423" cy="557" r="6.8" fill="#f0c48e" opacity="0.78"/><circle cx="618" cy="676" r="4.6" fill="#f0c48e" opacity="0.53"/><circle cx="443" cy="241" r="5.4" fill="#a86a35" opacity="0.44"/><circle cx="844" cy="471" r="3.0" fill="#f0c48e" opacity="0.37"/><circle cx="170" cy="273" r="3.0" fill="#e6b47c" opacity="0.63"/><circle cx="218" cy="312" r="4.2" fill="#e6b47c" opacity="0.78"/><circle cx="582" cy="494" r="3.0" fill="#9c5f2e" opacity="0.80"/><circle cx="489" cy="501" r="2.9" fill="#a86a35" opacity="0.69"/><circle cx="676" cy="497" r="5.6" fill="#f0c48e" opacity="0.36"/><circle cx="820" cy="531" r="3.2" fill="#f0c48e" opacity="0.76"/><circle cx="689" cy="374" r="5.4" fill="#a86a35" opacity="0.66"/><circle cx="349" cy="421" r="3.3" fill="#b97a40" opacity="0.59"/><circle cx="703" cy="395" r="3.5" fill="#b97a40" opacity="0.71"/><circle cx="730" cy="676" r="3.5" fill="#f0c48e" opacity="0.57"/><circle cx="670" cy="847" r="6.1" fill="#9c5f2e" opacity="0.47"/><circle cx="644" cy="824" r="4.5" fill="#e6b47c" opacity="0.78"/><circle cx="419" cy="321" r="3.5" fill="#b97a40" opacity="0.50"/><circle cx="500" cy="844" r="5.2" fill="#a86a35" opacity="0.57"/><circle cx="617" cy="717" r="2.9" fill="#a86a35" opacity="0.76"/><circle cx="705" cy="683" r="4.7" fill="#b97a40" opacity="0.55"/><circle cx="605" cy="229" r="6.8" fill="#9c5f2e" opacity="0.56"/><circle cx="678" cy="228" r="3.2" fill="#b97a40" opacity="0.36"/><circle cx="574" cy="488" r="5.5" fill="#f0c48e" opacity="0.72"/><circle cx="841" cy="620" r="4.1" fill="#f0c48e" opacity="0.60"/><circle cx="185" cy="717" r="5.8" fill="#a86a35" opacity="0.59"/><circle cx="809" cy="467" r="6.4" fill="#b97a40" opacity="0.36"/><circle cx="316" cy="513" r="5.9" fill="#e6b47c" opacity="0.47"/><circle cx="457" cy="260" r="6.6" fill="#e6b47c" opacity="0.75"/><circle cx="623" cy="727" r="4.8" fill="#f0c48e" opacity="0.41"/><circle cx="274" cy="519" r="6.4" fill="#b97a40" opacity="0.62"/><circle cx="701" cy="272" r="3.1" fill="#f0c48e" opacity="0.68"/><circle cx="551" cy="393" r="4.8" fill="#f0c48e" opacity="0.57"/><circle cx="701" cy="774" r="2.8" fill="#b97a40" opacity="0.47"/><circle cx="698" cy="517" r="5.0" fill="#a86a35" opacity="0.55"/><circle cx="589" cy="516" r="4.8" fill="#e6b47c" opacity="0.55"/><circle cx="535" cy="497" r="6.7" fill="#f0c48e" opacity="0.74"/><circle cx="814" cy="348" r="5.0" fill="#b97a40" opacity="0.73"/><circle cx="264" cy="253" r="4.5" fill="#a86a35" opacity="0.65"/><circle cx="463" cy="315" r="3.9" fill="#a86a35" opacity="0.75"/><circle cx="276" cy="660" r="5.5" fill="#b97a40" opacity="0.46"/><circle cx="264" cy="490" r="5.9" fill="#a86a35" opacity="0.53"/><circle cx="503" cy="847" r="6.2" fill="#b97a40" opacity="0.67"/><circle cx="850" cy="446" r="4.4" fill="#e6b47c" opacity="0.49"/><circle cx="664" cy="183" r="5.0" fill="#9c5f2e" opacity="0.67"/><circle cx="433" cy="524" r="3.8" fill="#a86a35" opacity="0.40"/><circle cx="798" cy="326" r="6.4" fill="#a86a35" opacity="0.47"/><circle cx="197" cy="703" r="3.7" fill="#b97a40" opacity="0.72"/><circle cx="751" cy="632" r="6.8" fill="#9c5f2e" opacity="0.42"/><circle cx="799" cy="560" r="5.7" fill="#a86a35" opacity="0.48"/><circle cx="717" cy="295" r="6.5" fill="#e6b47c" opacity="0.77"/><circle cx="604" cy="718" r="2.9" fill="#b97a40" opacity="0.38"/><circle cx="760" cy="480" r="4.0" fill="#f0c48e" opacity="0.54"/><circle cx="796" cy="595" r="2.7" fill="#b97a40" opacity="0.77"/><circle cx="833" cy="349" r="3.3" fill="#e6b47c" opacity="0.63"/><circle cx="533" cy="311" r="4.5" fill="#b97a40" opacity="0.47"/><circle cx="720" cy="850" r="2.7" fill="#a86a35" opacity="0.68"/><circle cx="547" cy="300" r="4.6" fill="#9c5f2e" opacity="0.40"/><circle cx="730" cy="466" r="4.7" fill="#9c5f2e" opacity="0.79"/><circle cx="381" cy="317" r="3.5" fill="#b97a40" opacity="0.72"/><circle cx="653" cy="605" r="4.3" fill="#e6b47c" opacity="0.79"/><circle cx="743" cy="180" r="5.3" fill="#e6b47c" opacity="0.54"/><circle cx="208" cy="625" r="4.2" fill="#f0c48e" opacity="0.65"/><circle cx="363" cy="336" r="3.8" fill="#9c5f2e" opacity="0.43"/><circle cx="354" cy="172" r="4.1" fill="#e6b47c" opacity="0.79"/><circle cx="544" cy="337" r="6.8" fill="#e6b47c" opacity="0.45"/><circle cx="295" cy="399" r="2.9" fill="#e6b47c" opacity="0.58"/><circle cx="307" cy="515" r="2.5" fill="#e6b47c" opacity="0.72"/><circle cx="268" cy="571" r="4.3" fill="#e6b47c" opacity="0.49"/><circle cx="329" cy="571" r="4.9" fill="#b97a40" opacity="0.65"/><circle cx="660" cy="771" r="4.3" fill="#e6b47c" opacity="0.67"/><circle cx="508" cy="364" r="5.3" fill="#b97a40" opacity="0.37"/><circle cx="741" cy="780" r="5.3" fill="#f0c48e" opacity="0.41"/><circle cx="528" cy="515" r="6.3" fill="#a86a35" opacity="0.72"/><circle cx="569" cy="781" r="5.6" fill="#b97a40" opacity="0.39"/><circle cx="199" cy="606" r="6.8" fill="#9c5f2e" opacity="0.73"/><circle cx="552" cy="599" r="5.3" fill="#b97a40" opacity="0.57"/><circle cx="172" cy="716" r="5.9" fill="#f0c48e" opacity="0.75"/><circle cx="233" cy="530" r="5.9" fill="#9c5f2e" opacity="0.46"/><circle cx="221" cy="352" r="5.8" fill="#b97a40" opacity="0.45"/><circle cx="615" cy="485" r="6.3" fill="#a86a35" opacity="0.57"/><circle cx="638" cy="695" r="5.3" fill="#b97a40" opacity="0.38"/><circle cx="271" cy="344" r="5.8" fill="#e6b47c" opacity="0.63"/><circle cx="261" cy="500" r="4.7" fill="#a86a35" opacity="0.66"/><circle cx="632" cy="369" r="4.8" fill="#9c5f2e" opacity="0.56"/><circle cx="695" cy="849" r="5.0" fill="#e6b47c" opacity="0.79"/><circle cx="810" cy="182" r="4.6" fill="#f0c48e" opacity="0.79"/><circle cx="477" cy="354" r="3.4" fill="#b97a40" opacity="0.38"/><circle cx="232" cy="681" r="3.7" fill="#e6b47c" opacity="0.41"/><circle cx="731" cy="518" r="6.5" fill="#e6b47c" opacity="0.45"/><circle cx="784" cy="503" r="2.6" fill="#a86a35" opacity="0.78"/><circle cx="636" cy="447" r="5.8" fill="#9c5f2e" opacity="0.50"/><circle cx="386" cy="745" r="2.5" fill="#e6b47c" opacity="0.73"/><circle cx="252" cy="804" r="5.7" fill="#e6b47c" opacity="0.46"/><circle cx="214" cy="437" r="6.4" fill="#a86a35" opacity="0.51"/><circle cx="463" cy="358" r="2.7" fill="#a86a35" opacity="0.37"/><circle cx="623" cy="604" r="3.2" fill="#e6b47c" opacity="0.55"/><circle cx="386" cy="699" r="6.0" fill="#9c5f2e" opacity="0.75"/><circle cx="725" cy="602" r="6.6" fill="#f0c48e" opacity="0.60"/><circle cx="662" cy="204" r="5.8" fill="#9c5f2e" opacity="0.63"/><circle cx="265" cy="765" r="4.7" fill="#f0c48e" opacity="0.41"/><circle cx="493" cy="405" r="3.8" fill="#e6b47c" opacity="0.53"/><circle cx="333" cy="500" r="5.5" fill="#a86a35" opacity="0.43"/><circle cx="281" cy="312" r="6.6" fill="#9c5f2e" opacity="0.60"/><circle cx="480" cy="398" r="5.9" fill="#9c5f2e" opacity="0.41"/><circle cx="302" cy="232" r="4.0" fill="#a86a35" opacity="0.49"/><circle cx="422" cy="724" r="3.4" fill="#a86a35" opacity="0.69"/><circle cx="452" cy="453" r="4.9" fill="#9c5f2e" opacity="0.47"/><circle cx="684" cy="511" r="5.1" fill="#e6b47c" opacity="0.41"/><circle cx="514" cy="601" r="6.4" fill="#b97a40" opacity="0.39"/><circle cx="783" cy="433" r="5.4" fill="#9c5f2e" opacity="0.78"/><circle cx="750" cy="767" r="2.6" fill="#a86a35" opacity="0.54"/><circle cx="692" cy="720" r="6.9" fill="#9c5f2e" opacity="0.35"/><circle cx="438" cy="804" r="6.2" fill="#9c5f2e" opacity="0.79"/><circle cx="340" cy="245" r="3.2" fill="#f0c48e" opacity="0.79"/><circle cx="244" cy="735" r="5.7" fill="#9c5f2e" opacity="0.39"/><circle cx="701" cy="171" r="3.1" fill="#f0c48e" opacity="0.76"/><circle cx="612" cy="378" r="3.1" fill="#e6b47c" opacity="0.59"/><circle cx="469" cy="692" r="2.9" fill="#e6b47c" opacity="0.59"/><circle cx="569" cy="435" r="3.5" fill="#f0c48e" opacity="0.35"/><circle cx="538" cy="852" r="3.8" fill="#e6b47c" opacity="0.64"/><circle cx="775" cy="495" r="3.6" fill="#b97a40" opacity="0.36"/><circle cx="452" cy="614" r="2.7" fill="#b97a40" opacity="0.57"/><circle cx="631" cy="457" r="3.7" fill="#9c5f2e" opacity="0.77"/><circle cx="325" cy="193" r="4.0" fill="#9c5f2e" opacity="0.51"/><circle cx="441" cy="175" r="3.8" fill="#f0c48e" opacity="0.38"/><circle cx="509" cy="307" r="5.9" fill="#b97a40" opacity="0.45"/><circle cx="321" cy="690" r="3.8" fill="#f0c48e" opacity="0.57"/><circle cx="298" cy="323" r="4.4" fill="#a86a35" opacity="0.78"/><circle cx="270" cy="439" r="3.5" fill="#f0c48e" opacity="0.41"/><circle cx="205" cy="211" r="4.3" fill="#e6b47c" opacity="0.68"/><circle cx="852" cy="807" r="4.0" fill="#b97a40" opacity="0.64"/><circle cx="529" cy="490" r="3.9" fill="#9c5f2e" opacity="0.73"/><circle cx="844" cy="473" r="3.0" fill="#a86a35" opacity="0.48"/><circle cx="410" cy="824" r="3.1" fill="#b97a40" opacity="0.52"/><circle cx="696" cy="381" r="6.1" fill="#a86a35" opacity="0.37"/><circle cx="494" cy="425" r="6.6" fill="#b97a40" opacity="0.50"/><circle cx="674" cy="495" r="5.3" fill="#b97a40" opacity="0.72"/><circle cx="694" cy="198" r="2.7" fill="#a86a35" opacity="0.71"/><circle cx="212" cy="303" r="2.8" fill="#f0c48e" opacity="0.50"/><circle cx="356" cy="825" r="5.3" fill="#e6b47c" opacity="0.69"/><circle cx="642" cy="802" r="3.8" fill="#f0c48e" opacity="0.76"/><circle cx="604" cy="815" r="2.6" fill="#b97a40" opacity="0.40"/><circle cx="659" cy="489" r="6.0" fill="#e6b47c" opacity="0.76"/><circle cx="727" cy="261" r="4.7" fill="#a86a35" opacity="0.71"/><circle cx="675" cy="733" r="6.0" fill="#f0c48e" opacity="0.46"/><circle cx="759" cy="485" r="6.0" fill="#f0c48e" opacity="0.39"/><circle cx="305" cy="685" r="3.6" fill="#a86a35" opacity="0.64"/><circle cx="499" cy="543" r="3.2" fill="#9c5f2e" opacity="0.75"/><circle cx="846" cy="351" r="2.9" fill="#a86a35" opacity="0.54"/><circle cx="846" cy="835" r="3.3" fill="#b97a40" opacity="0.54"/><circle cx="594" cy="631" r="5.9" fill="#a86a35" opacity="0.70"/><circle cx="371" cy="361" r="3.7" fill="#e6b47c" opacity="0.68"/><circle cx="306" cy="339" r="3.6" fill="#b97a40" opacity="0.48"/><circle cx="791" cy="299" r="2.8" fill="#e6b47c" opacity="0.80"/><circle cx="517" cy="328" r="6.1" fill="#9c5f2e" opacity="0.80"/><circle cx="240" cy="495" r="6.2" fill="#9c5f2e" opacity="0.76"/><circle cx="198" cy="371" r="3.0" fill="#b97a40" opacity="0.62"/><circle cx="736" cy="303" r="2.8" fill="#f0c48e" opacity="0.74"/><circle cx="477" cy="348" r="6.0" fill="#a86a35" opacity="0.40"/><circle cx="578" cy="594" r="3.5" fill="#e6b47c" opacity="0.50"/><circle cx="200" cy="854" r="2.7" fill="#b97a40" opacity="0.72"/><circle cx="730" cy="450" r="4.2" fill="#f0c48e" opacity="0.49"/><circle cx="309" cy="714" r="5.0" fill="#a86a35" opacity="0.53"/><circle cx="714" cy="624" r="3.2" fill="#f0c48e" opacity="0.39"/><circle cx="282" cy="646" r="4.3" fill="#e6b47c" opacity="0.65"/><circle cx="456" cy="205" r="5.9" fill="#e6b47c" opacity="0.54"/><circle cx="182" cy="694" r="6.1" fill="#b97a40" opacity="0.53"/><circle cx="447" cy="814" r="4.5" fill="#b97a40" opacity="0.54"/><circle cx="731" cy="448" r="6.5" fill="#9c5f2e" opacity="0.70"/><circle cx="259" cy="205" r="3.1" fill="#9c5f2e" opacity="0.39"/><circle cx="596" cy="424" r="4.8" fill="#b97a40" opacity="0.51"/><circle cx="281" cy="288" r="2.8" fill="#9c5f2e" opacity="0.57"/><circle cx="720" cy="831" r="3.4" fill="#b97a40" opacity="0.73"/><circle cx="200" cy="794" r="3.9" fill="#f0c48e" opacity="0.77"/><circle cx="435" cy="788" r="5.3" fill="#b97a40" opacity="0.64"/><circle cx="756" cy="595" r="5.3" fill="#b97a40" opacity="0.72"/><circle cx="295" cy="319" r="4.3" fill="#f0c48e" opacity="0.42"/><circle cx="416" cy="272" r="6.9" fill="#b97a40" opacity="0.37"/><circle cx="555" cy="688" r="2.7" fill="#e6b47c" opacity="0.40"/><circle cx="580" cy="546" r="5.3" fill="#e6b47c" opacity="0.64"/><circle cx="381" cy="340" r="4.3" fill="#e6b47c" opacity="0.55"/><circle cx="470" cy="186" r="5.3" fill="#9c5f2e" opacity="0.56"/><circle cx="476" cy="593" r="6.2" fill="#b97a40" opacity="0.71"/><circle cx="444" cy="216" r="4.1" fill="#e6b47c" opacity="0.39"/><circle cx="472" cy="519" r="2.7" fill="#b97a40" opacity="0.39"/><circle cx="672" cy="702" r="4.8" fill="#a86a35" opacity="0.69"/><circle cx="782" cy="616" r="6.0" fill="#a86a35" opacity="0.74"/><circle cx="851" cy="671" r="6.2" fill="#b97a40" opacity="0.41"/><circle cx="776" cy="367" r="6.1" fill="#b97a40" opacity="0.66"/><circle cx="663" cy="321" r="6.2" fill="#f0c48e" opacity="0.69"/><circle cx="279" cy="783" r="3.7" fill="#9c5f2e" opacity="0.41"/><circle cx="514" cy="799" r="3.4" fill="#e6b47c" opacity="0.63"/><circle cx="332" cy="425" r="3.4" fill="#9c5f2e" opacity="0.42"/><circle cx="811" cy="635" r="6.5" fill="#b97a40" opacity="0.71"/><circle cx="351" cy="695" r="2.7" fill="#e6b47c" opacity="0.78"/><circle cx="480" cy="527" r="5.6" fill="#a86a35" opacity="0.46"/><circle cx="536" cy="756" r="5.8" fill="#e6b47c" opacity="0.47"/><circle cx="848" cy="565" r="4.1" fill="#a86a35" opacity="0.55"/><circle cx="291" cy="679" r="2.7" fill="#f0c48e" opacity="0.46"/><circle cx="607" cy="843" r="5.1" fill="#e6b47c" opacity="0.68"/><circle cx="681" cy="322" r="3.8" fill="#9c5f2e" opacity="0.54"/><circle cx="419" cy="203" r="4.7" fill="#f0c48e" opacity="0.64"/><circle cx="185" cy="172" r="4.1" fill="#a86a35" opacity="0.59"/><circle cx="535" cy="453" r="3.9" fill="#b97a40" opacity="0.44"/><circle cx="597" cy="495" r="3.1" fill="#b97a40" opacity="0.67"/><circle cx="478" cy="214" r="3.2" fill="#e6b47c" opacity="0.53"/><circle cx="351" cy="178" r="5.4" fill="#f0c48e" opacity="0.75"/><circle cx="577" cy="566" r="5.2" fill="#f0c48e" opacity="0.68"/><circle cx="340" cy="788" r="2.7" fill="#f0c48e" opacity="0.36"/><circle cx="297" cy="279" r="6.6" fill="#a86a35" opacity="0.36"/><circle cx="547" cy="814" r="3.1" fill="#b97a40" opacity="0.58"/><circle cx="610" cy="613" r="4.4" fill="#f0c48e" opacity="0.43"/><circle cx="382" cy="375" r="2.7" fill="#9c5f2e" opacity="0.67"/><circle cx="174" cy="748" r="5.9" fill="#9c5f2e" opacity="0.39"/><circle cx="618" cy="290" r="7.0" fill="#e6b47c" opacity="0.45"/><circle cx="197" cy="399" r="5.9" fill="#e6b47c" opacity="0.67"/><circle cx="352" cy="549" r="4.5" fill="#f0c48e" opacity="0.79"/><circle cx="372" cy="805" r="6.5" fill="#a86a35" opacity="0.75"/><circle cx="180" cy="348" r="3.6" fill="#b97a40" opacity="0.78"/><circle cx="680" cy="394" r="6.5" fill="#e6b47c" opacity="0.62"/><circle cx="430" cy="753" r="6.6" fill="#f0c48e" opacity="0.56"/><circle cx="744" cy="647" r="6.4" fill="#9c5f2e" opacity="0.78"/><circle cx="330" cy="775" r="6.1" fill="#9c5f2e" opacity="0.63"/><circle cx="223" cy="793" r="3.2" fill="#a86a35" opacity="0.40"/><circle cx="595" cy="281" r="6.9" fill="#a86a35" opacity="0.36"/><circle cx="265" cy="610" r="2.7" fill="#a86a35" opacity="0.68"/><circle cx="215" cy="574" r="4.1" fill="#f0c48e" opacity="0.75"/><circle cx="215" cy="764" r="6.6" fill="#9c5f2e" opacity="0.40"/><circle cx="311" cy="247" r="2.7" fill="#a86a35" opacity="0.72"/><circle cx="602" cy="367" r="2.9" fill="#a86a35" opacity="0.71"/><circle cx="612" cy="371" r="4.0" fill="#e6b47c" opacity="0.36"/><circle cx="346" cy="363" r="5.7" fill="#e6b47c" opacity="0.76"/><circle cx="696" cy="582" r="4.6" fill="#e6b47c" opacity="0.63"/><circle cx="191" cy="452" r="4.5" fill="#a86a35" opacity="0.51"/><circle cx="652" cy="538" r="3.5" fill="#a86a35" opacity="0.61"/><circle cx="366" cy="468" r="4.9" fill="#e6b47c" opacity="0.69"/><circle cx="839" cy="173" r="4.7" fill="#9c5f2e" opacity="0.66"/><circle cx="735" cy="832" r="5.2" fill="#f0c48e" opacity="0.47"/><circle cx="816" cy="364" r="3.5" fill="#b97a40" opacity="0.57"/><circle cx="245" cy="605" r="2.9" fill="#f0c48e" opacity="0.70"/><circle cx="600" cy="413" r="4.3" fill="#9c5f2e" opacity="0.75"/><circle cx="680" cy="459" r="5.4" fill="#e6b47c" opacity="0.44"/><circle cx="350" cy="786" r="4.8" fill="#9c5f2e" opacity="0.79"/><circle cx="601" cy="816" r="3.1" fill="#f0c48e" opacity="0.69"/><circle cx="685" cy="612" r="4.1" fill="#e6b47c" opacity="0.58"/><circle cx="764" cy="478" r="5.0" fill="#e6b47c" opacity="0.43"/><circle cx="470" cy="699" r="5.1" fill="#b97a40" opacity="0.50"/><circle cx="610" cy="646" r="4.8" fill="#e6b47c" opacity="0.49"/><circle cx="651" cy="747" r="3.2" fill="#b97a40" opacity="0.79"/><circle cx="665" cy="582" r="4.1" fill="#b97a40" opacity="0.50"/><circle cx="299" cy="837" r="5.8" fill="#a86a35" opacity="0.42"/><circle cx="620" cy="304" r="3.2" fill="#b97a40" opacity="0.71"/><circle cx="672" cy="467" r="3.4" fill="#a86a35" opacity="0.48"/><circle cx="776" cy="487" r="2.6" fill="#9c5f2e" opacity="0.66"/><circle cx="512" cy="603" r="4.6" fill="#b97a40" opacity="0.47"/><circle cx="675" cy="174" r="3.6" fill="#9c5f2e" opacity="0.67"/><circle cx="572" cy="613" r="6.3" fill="#f0c48e" opacity="0.73"/><circle cx="635" cy="609" r="4.5" fill="#e6b47c" opacity="0.47"/><circle cx="649" cy="782" r="3.6" fill="#9c5f2e" opacity="0.67"/><circle cx="601" cy="341" r="4.4" fill="#9c5f2e" opacity="0.36"/><circle cx="757" cy="524" r="5.5" fill="#b97a40" opacity="0.75"/><circle cx="394" cy="177" r="6.2" fill="#a86a35" opacity="0.37"/><circle cx="542" cy="280" r="6.0" fill="#b97a40" opacity="0.58"/><circle cx="239" cy="563" r="4.9" fill="#9c5f2e" opacity="0.58"/><circle cx="607" cy="737" r="4.8" fill="#9c5f2e" opacity="0.68"/><circle cx="483" cy="847" r="3.3" fill="#f0c48e" opacity="0.69"/><circle cx="254" cy="843" r="4.1" fill="#a86a35" opacity="0.46"/><circle cx="431" cy="212" r="2.8" fill="#9c5f2e" opacity="0.63"/><circle cx="632" cy="567" r="3.0" fill="#e6b47c" opacity="0.68"/><circle cx="813" cy="531" r="3.5" fill="#9c5f2e" opacity="0.56"/><circle cx="283" cy="806" r="2.8" fill="#b97a40" opacity="0.56"/><circle cx="554" cy="325" r="6.8" fill="#e6b47c" opacity="0.65"/><circle cx="738" cy="714" r="4.4" fill="#e6b47c" opacity="0.69"/><circle cx="614" cy="703" r="4.6" fill="#b97a40" opacity="0.47"/><circle cx="427" cy="343" r="4.4" fill="#b97a40" opacity="0.57"/><circle cx="721" cy="716" r="4.1" fill="#e6b47c" opacity="0.49"/><circle cx="502" cy="596" r="2.9" fill="#e6b47c" opacity="0.42"/><circle cx="377" cy="433" r="2.9" fill="#f0c48e" opacity="0.76"/><circle cx="706" cy="266" r="6.2" fill="#f0c48e" opacity="0.36"/><circle cx="178" cy="821" r="5.5" fill="#e6b47c" opacity="0.62"/><circle cx="566" cy="754" r="3.3" fill="#9c5f2e" opacity="0.51"/><circle cx="274" cy="788" r="6.1" fill="#b97a40" opacity="0.62"/><circle cx="641" cy="838" r="2.9" fill="#f0c48e" opacity="0.70"/><circle cx="744" cy="305" r="5.6" fill="#f0c48e" opacity="0.39"/><circle cx="744" cy="629" r="3.0" fill="#a86a35" opacity="0.47"/><circle cx="330" cy="265" r="4.7" fill="#a86a35" opacity="0.57"/><circle cx="789" cy="649" r="3.6" fill="#b97a40" opacity="0.59"/><circle cx="760" cy="175" r="6.3" fill="#9c5f2e" opacity="0.66"/><circle cx="510" cy="373" r="4.6" fill="#9c5f2e" opacity="0.54"/><circle cx="827" cy="222" r="5.4" fill="#a86a35" opacity="0.36"/><circle cx="201" cy="674" r="7.0" fill="#a86a35" opacity="0.58"/><circle cx="502" cy="784" r="2.7" fill="#9c5f2e" opacity="0.63"/><circle cx="402" cy="759" r="4.1" fill="#9c5f2e" opacity="0.70"/><circle cx="549" cy="794" r="3.8" fill="#e6b47c" opacity="0.54"/><circle cx="549" cy="735" r="3.8" fill="#9c5f2e" opacity="0.53"/><circle cx="515" cy="356" r="4.8" fill="#b97a40" opacity="0.64"/><circle cx="712" cy="396" r="3.9" fill="#e6b47c" opacity="0.41"/><circle cx="835" cy="230" r="7.0" fill="#9c5f2e" opacity="0.68"/><circle cx="776" cy="543" r="2.7" fill="#e6b47c" opacity="0.40"/><circle cx="202" cy="732" r="4.6" fill="#a86a35" opacity="0.71"/><circle cx="792" cy="588" r="5.3" fill="#f0c48e" opacity="0.74"/><circle cx="227" cy="197" r="5.4" fill="#b97a40" opacity="0.40"/><circle cx="294" cy="195" r="6.0" fill="#a86a35" opacity="0.52"/><circle cx="733" cy="708" r="5.0" fill="#e6b47c" opacity="0.74"/><circle cx="296" cy="193" r="2.6" fill="#f0c48e" opacity="0.64"/><circle cx="809" cy="207" r="5.1" fill="#a86a35" opacity="0.72"/><circle cx="699" cy="458" r="5.6" fill="#9c5f2e" opacity="0.55"/><circle cx="180" cy="435" r="5.2" fill="#b97a40" opacity="0.56"/><circle cx="452" cy="240" r="5.4" fill="#b97a40" opacity="0.75"/><circle cx="599" cy="462" r="2.5" fill="#a86a35" opacity="0.79"/><circle cx="757" cy="319" r="3.0" fill="#9c5f2e" opacity="0.36"/><circle cx="662" cy="336" r="5.8" fill="#b97a40" opacity="0.77"/><circle cx="420" cy="681" r="5.6" fill="#b97a40" opacity="0.68"/><circle cx="228" cy="600" r="5.7" fill="#9c5f2e" opacity="0.65"/><circle cx="779" cy="795" r="2.7" fill="#a86a35" opacity="0.36"/><circle cx="180" cy="615" r="6.2" fill="#a86a35" opacity="0.53"/><circle cx="384" cy="580" r="6.8" fill="#9c5f2e" opacity="0.62"/><circle cx="386" cy="819" r="5.8" fill="#9c5f2e" opacity="0.65"/><circle cx="269" cy="715" r="4.1" fill="#b97a40" opacity="0.63"/><circle cx="456" cy="434" r="6.0" fill="#e6b47c" opacity="0.70"/><circle cx="558" cy="370" r="2.8" fill="#f0c48e" opacity="0.50"/><circle cx="584" cy="839" r="6.2" fill="#f0c48e" opacity="0.72"/><circle cx="570" cy="838" r="3.6" fill="#9c5f2e" opacity="0.66"/><circle cx="582" cy="783" r="6.1" fill="#e6b47c" opacity="0.66"/><circle cx="390" cy="353" r="3.2" fill="#a86a35" opacity="0.48"/><circle cx="266" cy="779" r="7.0" fill="#b97a40" opacity="0.47"/><circle cx="752" cy="722" r="5.6" fill="#9c5f2e" opacity="0.51"/><circle cx="228" cy="549" r="6.1" fill="#b97a40" opacity="0.70"/><circle cx="664" cy="842" r="3.9" fill="#a86a35" opacity="0.65"/><circle cx="488" cy="311" r="3.6" fill="#a86a35" opacity="0.71"/><circle cx="484" cy="230" r="6.1" fill="#a86a35" opacity="0.45"/><circle cx="566" cy="783" r="6.5" fill="#f0c48e" opacity="0.49"/><circle cx="516" cy="308" r="3.5" fill="#a86a35" opacity="0.43"/><circle cx="650" cy="418" r="5.0" fill="#9c5f2e" opacity="0.70"/><circle cx="756" cy="338" r="6.7" fill="#9c5f2e" opacity="0.52"/><circle cx="243" cy="603" r="6.0" fill="#b97a40" opacity="0.49"/><circle cx="191" cy="362" r="5.2" fill="#a86a35" opacity="0.37"/><circle cx="847" cy="762" r="4.7" fill="#f0c48e" opacity="0.45"/><circle cx="803" cy="361" r="2.9" fill="#9c5f2e" opacity="0.70"/><circle cx="730" cy="829" r="3.6" fill="#a86a35" opacity="0.50"/><circle cx="850" cy="429" r="2.6" fill="#a86a35" opacity="0.60"/><circle cx="766" cy="483" r="6.8" fill="#a86a35" opacity="0.74"/><circle cx="608" cy="801" r="5.7" fill="#a86a35" opacity="0.47"/><circle cx="556" cy="608" r="6.8" fill="#f0c48e" opacity="0.53"/><circle cx="477" cy="279" r="6.8" fill="#b97a40" opacity="0.43"/><circle cx="814" cy="814" r="2.8" fill="#f0c48e" opacity="0.76"/><circle cx="743" cy="202" r="6.0" fill="#9c5f2e" opacity="0.38"/><circle cx="269" cy="686" r="6.7" fill="#e6b47c" opacity="0.62"/><circle cx="472" cy="616" r="4.6" fill="#e6b47c" opacity="0.47"/><circle cx="255" cy="499" r="3.3" fill="#b97a40" opacity="0.71"/><circle cx="795" cy="780" r="4.6" fill="#b97a40" opacity="0.71"/><circle cx="277" cy="740" r="2.9" fill="#f0c48e" opacity="0.74"/><circle cx="778" cy="266" r="4.5" fill="#a86a35" opacity="0.77"/><circle cx="433" cy="185" r="2.8" fill="#e6b47c" opacity="0.50"/><circle cx="330" cy="249" r="4.1" fill="#e6b47c" opacity="0.45"/><circle cx="209" cy="658" r="5.0" fill="#b97a40" opacity="0.55"/><circle cx="272" cy="456" r="3.6" fill="#a86a35" opacity="0.47"/><circle cx="744" cy="399" r="3.3" fill="#9c5f2e" opacity="0.40"/><circle cx="482" cy="500" r="3.2" fill="#f0c48e" opacity="0.38"/><circle cx="782" cy="627" r="3.5" fill="#9c5f2e" opacity="0.73"/><circle cx="252" cy="686" r="6.9" fill="#9c5f2e" opacity="0.80"/><circle cx="853" cy="803" r="2.9" fill="#e6b47c" opacity="0.54"/><circle cx="281" cy="739" r="6.9" fill="#b97a40" opacity="0.79"/><circle cx="181" cy="722" r="4.0" fill="#b97a40" opacity="0.55"/><circle cx="710" cy="815" r="3.8" fill="#e6b47c" opacity="0.55"/><circle cx="794" cy="319" r="5.1" fill="#b97a40" opacity="0.73"/><circle cx="527" cy="328" r="3.3" fill="#f0c48e" opacity="0.39"/><circle cx="230" cy="586" r="4.7" fill="#e6b47c" opacity="0.43"/><circle cx="264" cy="628" r="5.3" fill="#b97a40" opacity="0.61"/><circle cx="308" cy="215" r="5.8" fill="#9c5f2e" opacity="0.73"/><circle cx="797" cy="525" r="4.1" fill="#e6b47c" opacity="0.73"/><circle cx="761" cy="507" r="2.6" fill="#9c5f2e" opacity="0.41"/><circle cx="625" cy="340" r="5.0" fill="#e6b47c" opacity="0.37"/><circle cx="650" cy="563" r="6.4" fill="#e6b47c" opacity="0.58"/><circle cx="475" cy="523" r="3.0" fill="#b97a40" opacity="0.72"/><circle cx="762" cy="390" r="5.7" fill="#9c5f2e" opacity="0.61"/><circle cx="784" cy="369" r="3.0" fill="#9c5f2e" opacity="0.55"/><circle cx="188" cy="720" r="3.1" fill="#b97a40" opacity="0.79"/><circle cx="323" cy="295" r="3.0" fill="#e6b47c" opacity="0.60"/><circle cx="823" cy="183" r="6.7" fill="#b97a40" opacity="0.47"/><circle cx="743" cy="606" r="4.6" fill="#b97a40" opacity="0.67"/><circle cx="240" cy="765" r="5.7" fill="#a86a35" opacity="0.47"/><circle cx="488" cy="571" r="5.9" fill="#a86a35" opacity="0.40"/><circle cx="447" cy="264" r="5.2" fill="#b97a40" opacity="0.42"/><circle cx="562" cy="681" r="3.2" fill="#a86a35" opacity="0.77"/><circle cx="436" cy="458" r="6.3" fill="#f0c48e" opacity="0.37"/><circle cx="834" cy="206" r="4.1" fill="#9c5f2e" opacity="0.46"/><circle cx="399" cy="468" r="6.9" fill="#e6b47c" opacity="0.72"/><circle cx="750" cy="207" r="4.8" fill="#e6b47c" opacity="0.46"/><circle cx="459" cy="603" r="4.1" fill="#f0c48e" opacity="0.43"/><circle cx="392" cy="307" r="5.5" fill="#b97a40" opacity="0.41"/><circle cx="833" cy="701" r="6.7" fill="#a86a35" opacity="0.71"/><circle cx="775" cy="775" r="2.7" fill="#f0c48e" opacity="0.47"/><circle cx="634" cy="357" r="4.9" fill="#a86a35" opacity="0.63"/><circle cx="341" cy="526" r="4.5" fill="#a86a35" opacity="0.48"/><circle cx="379" cy="613" r="3.0" fill="#f0c48e" opacity="0.78"/><circle cx="800" cy="787" r="2.9" fill="#f0c48e" opacity="0.59"/></g>
  <rect x="150" y="150" width="724" height="724" rx="120" fill="none" stroke="#6b3f17" stroke-width="10" opacity=".35"/>
  <g transform="rotate(-6 350.0 335.0)">
    <rect x="221" y="244" width="270" height="210" rx="14" fill="#000" opacity=".22"/>
    <rect x="215" y="230" width="270" height="210" rx="14" fill="#ffe066"/><rect x="249" y="300" width="202" height="14" rx="7" fill="#000" opacity=".16"/><rect x="249" y="342" width="202" height="14" rx="7" fill="#000" opacity=".16"/><rect x="249" y="384" width="142" height="14" rx="7" fill="#000" opacity=".16"/></g>
  <g transform="rotate(5 685.0 395.0)">
    <rect x="566" y="314" width="250" height="190" rx="14" fill="#000" opacity=".22"/>
    <rect x="560" y="300" width="250" height="190" rx="14" fill="#8fd3ff"/><rect x="594" y="370" width="182" height="14" rx="7" fill="#000" opacity=".16"/><rect x="594" y="412" width="182" height="14" rx="7" fill="#000" opacity=".16"/><rect x="594" y="454" width="122" height="14" rx="7" fill="#000" opacity=".16"/></g>
  <g transform="rotate(3 440.0 667.5)">
    <rect x="306" y="574" width="280" height="215" rx="14" fill="#000" opacity=".22"/>
    <rect x="300" y="560" width="280" height="215" rx="14" fill="#ffa8cf"/><rect x="334" y="630" width="212" height="14" rx="7" fill="#000" opacity=".16"/><rect x="334" y="672" width="212" height="14" rx="7" fill="#000" opacity=".16"/><rect x="334" y="714" width="152" height="14" rx="7" fill="#000" opacity=".16"/></g>
  <g fill="none" stroke="#d62828" stroke-width="11" stroke-linecap="round">
    <path d="M340 252 Q 520 330 680 318"/>
    <path d="M680 318 Q 600 470 440 578"/>
    <path d="M340 252 Q 330 420 440 578" opacity=".9"/>
  </g>
  <g><ellipse cx="348" cy="266" rx="26" ry="12" fill="#000" opacity=".25"/>
    <circle cx="340" cy="252" r="28" fill="#e5383b"/><circle cx="340" cy="252" r="28" fill="url(#pinShade)"/>
    <circle cx="331" cy="242" r="8" fill="#fff" opacity=".75"/></g><g><ellipse cx="688" cy="332" rx="26" ry="12" fill="#000" opacity=".25"/>
    <circle cx="680" cy="318" r="28" fill="#2b8a3e"/><circle cx="680" cy="318" r="28" fill="url(#pinShade)"/>
    <circle cx="671" cy="308" r="8" fill="#fff" opacity=".75"/></g><g><ellipse cx="448" cy="592" rx="26" ry="12" fill="#000" opacity=".25"/>
    <circle cx="440" cy="578" r="28" fill="#1c7ed6"/><circle cx="440" cy="578" r="28" fill="url(#pinShade)"/>
    <circle cx="431" cy="568" r="8" fill="#fff" opacity=".75"/></g>
</svg>